<svg width="1662" height="1255" viewBox="0 0 1662 1255" fill="none" xmlns="http://www.w3.org/2000/svg">
<path d="M1237.59 1254.12L822.364 1245.76C826.928 1016.52 1016.61 834.24 1245.86 838.804C1016.61 834.24 834.332 644.556 838.896 415.312C834.332 644.556 644.648 826.836 415.404 822.272C644.648 826.836 826.928 1016.52 822.364 1245.76L407.045 1237.5C177.8 1232.93 -4.47927 1043.25 0.0843093 814.004C4.64789 584.76 194.332 402.48 423.576 407.044C428.14 177.8 617.824 -4.47989 847.069 0.0836653C1076.41 4.55604 1258.69 194.24 1254.03 423.576C1483.46 428.143 1665.65 617.732 1660.99 847.068L1661.08 847.163C1656.52 1076.41 1466.83 1258.69 1237.59 1254.12Z" fill="white"/>
</svg>
